# xmcd CD database file
#
# Track frame offsets:
#	182
#	17707
#	32827
#	50122
#	63510
#	80817
#	96390
#	116192
#	131350
#	149912
#	173155
#	188815
#
# Disc length: 2727 seconds
#
# Revision: 7
# Processed by: cddbd v1.5.2PL0 Copyright (c) Steve Scherf et al.
# Submitted via: CDex 1.51
#
DISCID=b80aa50c
DTITLE=Trisha Yearwood - Where Your Road Leads
DYEAR=1998
DGENRE=Country
TTITLE0=Trisha Yearwood - There Goes My Baby
TTITLE1=Trisha Yearwood - Never Let You Go Again
TTITLE2=Trisha Yearwood - That Ain't The Way I Heard It
TTITLE3=Trisha Yearwood - Powerful Thing
TTITLE4=Trisha Yearwood - Love Wouldn't Lie To Me
TTITLE5=Trisha Yearwood - Wouldn't Any Woman
TTITLE6=Trisha Yearwood - I'll Still Love You More
TTITLE7=Trisha Yearwood - Heart Like A Sad Song
TTITLE8=Trisha Yearwood - I Don't Want To Be The One
TTITLE9=Trisha Yearwood - Bring Me All Your Lovin'
TTITLE10=Trisha Yearwood with Garth Brooks - Where Your Road Leads
TTITLE11=Trisha Yearwood - One More Chance
EXTD=YEAR: 1998
EXTT0=
EXTT1=
EXTT2=
EXTT3=
EXTT4=
EXTT5=
EXTT6=
EXTT7=
EXTT8=
EXTT9=
EXTT10=
EXTT11=
PLAYORDER=
